<svg xmlns="http://www.w3.org/2000/svg" viewBox="0 0 100 100" fill="none">
  <!-- Círculo exterior de la moneda -->
  <circle cx="50" cy="50" r="48" fill="#3b82f6" stroke="#60a5fa" stroke-width="2"/>

  <!-- Círculo interior -->
  <circle cx="50" cy="50" r="42" fill="#2563eb"/>

  <!-- Símbolo BSV estilizado -->
  <path d="M 35 30 L 35 70 L 50 70 C 60 70 65 65 65 57.5 C 65 52.5 62 48 55 47.5 C 60 47 62.5 43 62.5 38.5 C 62.5 31 58 30 50 30 Z M 42 36 L 50 36 C 54 36 56 37 56 40 C 56 43 54 44 50 44 L 42 44 Z M 42 50 L 51 50 C 55 50 58 51 58 55 C 58 59 55 64 50 64 L 42 64 Z"
        fill="white"/>

  <!-- Líneas del símbolo de moneda -->
  <line x1="47" y1="25" x2="47" y2="32" stroke="white" stroke-width="3" stroke-linecap="round"/>
  <line x1="53" y1="25" x2="53" y2="32" stroke="white" stroke-width="3" stroke-linecap="round"/>
  <line x1="47" y1="68" x2="47" y2="75" stroke="white" stroke-width="3" stroke-linecap="round"/>
  <line x1="53" y1="68" x2="53" y2="75" stroke="white" stroke-width="3" stroke-linecap="round"/>

  <!-- Brillo en la moneda -->
  <ellipse cx="35" cy="35" rx="12" ry="8" fill="white" opacity="0.2" transform="rotate(-30 35 35)"/>
</svg>
